<svg width="184.228125px" height="68.39999999999999px" xmlns="http://www.w3.org/2000/svg" viewBox="39.88593750000001 14.300000000000004 420.228125 121.39999999999999" style="background: rgba(0, 0, 0, 0);" preserveAspectRatio="xMidYMid"><defs><linearGradient id="editing-gradient-gradient" x1="0" x2="1" y1="0.5" y2="0.5" gradientUnits="objectBoundingBox"><stop offset="0" stop-color="#f0f"></stop><stop offset="1" stop-color="#0ff"></stop></linearGradient></defs><g><g transform="translate(105.26881992816925, 99)"><path d="M6.53 0L-0.83 0L10.75-42.24L24.13-42.24L27.07-18.11L38.98-42.24L50.18-42.24L51.33-10.62L51.33-10.62Q51.58-4.35 54.66-2.43L54.66-2.43L54.66-2.43Q53.95-1.15 51.90 0.06L51.90 0.06L51.90 0.06Q49.86 1.28 47.14 1.28L47.14 1.28L47.14 1.28Q44.42 1.28 42.82 0.51L42.82 0.51L42.82 0.51Q41.22-0.26 40.32-1.54L40.32-1.54L40.32-1.54Q38.72-3.84 38.72-8.26L38.72-8.26L38.72-28.03L26.11 0L18.18 0L13.70-28.74L6.53 0ZM56.51-3.78L56.51-3.78L56.51-3.78Q56.51-6.21 58.40-7.55L58.40-7.55L58.40-7.55Q60.29-8.90 62.98-8.90L62.98-8.90L62.98-8.90Q65.66-8.90 67.30-7.55L67.30-7.55L67.30-7.55Q68.93-6.21 68.93-3.78L68.93-3.78L68.93-3.78Q68.93-1.34 67.10-0.03L67.10-0.03L67.10-0.03Q65.28 1.28 62.59 1.28L62.59 1.28L62.59 1.28Q59.90 1.28 58.21-0.03L58.21-0.03L58.21-0.03Q56.51-1.34 56.51-3.78ZM102.98 1.28L102.98 1.28L102.98 1.28Q94.78 1.28 94.02-10.37L94.02-10.37L83.01-10.37L83.01-10.37Q81.73-7.42 80.83-4.86L80.83-4.86L79.17 0L70.21 0L90.37-42.24L104.13-42.24L106.82-11.14L106.82-11.14Q107.46-4.42 110.02-2.43L110.02-2.43L110.02-2.43Q108.16 1.28 102.98 1.28ZM88.51-23.17L84.99-15.04L93.82-15.04L93.06-31.49L93.06-33.22L88.51-23.17ZM129.02-3.52L129.02-3.52L129.02-3.52Q127.04 1.28 120.70 1.28L120.70 1.28L120.70 1.28Q117.50 1.28 115.46-0.96L115.46-0.96L115.46-0.96Q113.79-2.82 113.79-4.93L113.79-4.93L113.79-4.93Q113.79-9.73 116.03-20.22L116.03-20.22L120.70-44.80L133.70-46.08L127.49-13.70L127.49-13.70Q126.40-8.96 126.40-7.30L126.40-7.30L126.40-7.30Q126.40-3.65 129.02-3.52ZM137.25-1.92L137.25-1.92L137.25-1.92Q135.74-3.58 135.07-6.21L135.07-6.21L135.07-6.21Q134.40-8.83 134.40-13.12L134.40-13.12L134.40-13.12Q134.40-17.41 135.87-21.31L135.87-21.31L135.87-21.31Q137.34-25.22 140.03-28.03L140.03-28.03L140.03-28.03Q145.54-33.92 154.62-33.92L154.62-33.92L154.62-33.92Q157.89-33.92 160.26-32.83L160.26-32.83L171.20-33.92L166.46-8.96L166.46-8.96Q166.27-8.19 166.27-6.78L166.27-6.78L166.27-6.78Q166.27-5.38 167.14-4.48L167.14-4.48L167.14-4.48Q168-3.58 169.28-3.46L169.28-3.46L169.28-3.46Q168.64-1.28 166.30 0L166.30 0L166.30 0Q163.97 1.28 161.34 1.28L161.34 1.28L161.34 1.28Q158.72 1.28 156.96 0.29L156.96 0.29L156.96 0.29Q155.20-0.70 154.69-2.37L154.69-2.37L154.69-2.37Q153.66-0.77 151.49 0.26L151.49 0.26L151.49 0.26Q149.31 1.28 146.40 1.28L146.40 1.28L146.40 1.28Q143.49 1.28 141.12 0.51L141.12 0.51L141.12 0.51Q138.75-0.26 137.25-1.92ZM150.75-27.90L150.75-27.90L150.75-27.90Q150.02-26.75 149.38-24.80L149.38-24.80L149.38-24.80Q148.74-22.85 147.68-17.63L147.68-17.63L147.68-17.63Q146.62-12.42 146.62-8.70L146.62-8.70L146.62-8.70Q146.62-4.99 147.20-3.90L147.20-3.90L147.20-3.90Q147.78-2.82 148.80-2.82L148.80-2.82L148.80-2.82Q150.85-2.82 152.35-4.77L152.35-4.77L152.35-4.77Q153.86-6.72 154.43-10.18L154.43-10.18L157.82-28.93L157.82-28.93Q156.48-30.08 154.91-30.08L154.91-30.08L154.91-30.08Q153.34-30.08 152.42-29.57L152.42-29.57L152.42-29.57Q151.49-29.06 150.75-27.90ZM220.74 1.28L220.74 1.28L220.74 1.28Q212.99 1.28 212.99-4.74L212.99-4.74L212.99-4.74Q212.99-7.36 214.11-12.45L214.11-12.45L214.11-12.45Q215.23-17.54 215.62-19.58L215.62-19.58L215.62-19.58Q216.51-24.26 216.51-25.73L216.51-25.73L216.51-25.73Q216.51-28.99 214.08-28.99L214.08-28.99L214.08-28.99Q212.48-28.99 210.94-26.78L210.94-26.78L210.94-26.78Q209.41-24.58 208.70-20.16L208.70-20.16L204.74 0L192.26 1.28L195.71-16.13L195.71-16.13Q196.29-19.01 196.80-22.27L196.80-22.27L196.80-22.27Q197.31-25.54 197.31-26.05L197.31-26.05L197.31-26.05Q197.31-28.99 195.14-28.99L195.14-28.99L195.14-28.99Q193.66-28.99 192.06-26.82L192.06-26.82L192.06-26.82Q190.46-24.64 189.57-20.16L189.57-20.16L185.66 0L173.06 1.28L179.78-32.64L190.21-33.92L189.12-27.46L189.12-27.46Q190.78-30.91 193.86-32.42L193.86-32.42L193.86-32.42Q196.93-33.92 201.73-33.92L201.73-33.92L201.73-33.92Q204.48-33.92 206.27-32.58L206.27-32.58L206.27-32.58Q208.06-31.23 208.64-29.06L208.64-29.06L208.64-29.06Q209.73-31.30 212.51-32.61L212.51-32.61L212.51-32.61Q215.30-33.92 218.72-33.92L218.72-33.92L218.72-33.92Q222.14-33.92 223.84-33.18L223.84-33.18L223.84-33.18Q225.54-32.45 226.56-31.23L226.56-31.23L226.56-31.23Q228.29-28.99 228.29-24.90L228.29-24.90L228.29-24.90Q228.29-20.86 226.56-12.48L226.56-12.48L226.56-12.48Q225.66-8.38 225.66-6.88L225.66-6.88L225.66-6.88Q225.66-5.38 226.53-4.48L226.53-4.48L226.53-4.48Q227.39-3.58 228.67-3.46L228.67-3.46L228.67-3.46Q228.03-1.28 225.82 0L225.82 0L225.82 0Q223.62 1.28 220.74 1.28ZM248.96-3.52L248.96-3.52L248.96-3.52Q246.98 1.28 240.64 1.28L240.64 1.28L240.64 1.28Q237.38 1.28 235.33-0.96L235.33-0.96L235.33-0.96Q233.60-2.94 233.60-4.93L233.60-4.93L233.60-4.93Q233.60-10.11 235.97-20.22L235.97-20.22L238.34-32.64L251.33-33.92L247.42-13.70L247.42-13.70Q246.34-8.96 246.34-7.30L246.34-7.30L246.34-7.30Q246.34-3.65 248.96-3.52ZM239.49-41.54L239.49-41.54L239.49-41.54Q239.49-44.03 241.57-45.38L241.57-45.38L241.57-45.38Q243.65-46.72 246.66-46.72L246.66-46.72L246.66-46.72Q249.66-46.72 251.49-45.38L251.49-45.38L251.49-45.38Q253.31-44.03 253.31-41.54L253.31-41.54L253.31-41.54Q253.31-39.04 251.30-37.76L251.30-37.76L251.30-37.76Q249.28-36.48 246.27-36.48L246.27-36.48L246.27-36.48Q243.26-36.48 241.38-37.76L241.38-37.76L241.38-37.76Q239.49-39.04 239.49-41.54ZM281.47 1.28L281.47 1.28L281.47 1.28Q273.73 1.28 273.73-4.74L273.73-4.74L273.73-4.74Q273.79-6.40 274.30-9.22L274.30-9.22L275.46-15.10L275.46-15.10Q277.18-23.42 277.18-25.28L277.18-25.28L277.18-25.28Q277.18-28.99 275.01-28.99L275.01-28.99L275.01-28.99Q271.36-28.99 269.44-19.46L269.44-19.46L265.66 0L252.80 1.28L259.46-32.70L269.95-33.92L268.93-27.65L268.93-27.65Q271.94-33.92 281.15-33.92L281.15-33.92L281.15-33.92Q285.63-33.92 287.52-32.03L287.52-32.03L287.52-32.03Q289.41-30.14 289.41-25.92L289.41-25.92L289.41-25.92Q289.41-21.95 287.36-12.67L287.36-12.67L287.36-12.67Q286.40-8.51 286.40-6.94L286.40-6.94L286.40-6.94Q286.40-5.38 287.26-4.48L287.26-4.48L287.26-4.48Q288.13-3.58 289.41-3.46L289.41-3.46L289.41-3.46Q288.77-1.28 286.56 0L286.56 0L286.56 0Q284.35 1.28 281.47 1.28Z" fill="url(#editing-gradient-gradient)"></path></g></g><style>text {
  font-size: 40px;
  font-family: Arial Black;
  dominant-baseline: central;
  text-anchor: middle;
}</style></svg>